<?xml version="1.0" encoding="utf-8"?>
<!-- Generator: Adobe Illustrator 15.1.0, SVG Export Plug-In . SVG Version: 6.00 Build 0)  -->
<!DOCTYPE svg PUBLIC "-//W3C//DTD SVG 1.1//EN" "http://www.w3.org/Graphics/SVG/1.1/DTD/svg11.dtd">
<svg version="1.1" id="Layer_1" xmlns="http://www.w3.org/2000/svg" xmlns:xlink="http://www.w3.org/1999/xlink" x="0px" y="0px"
	 width="95.123px" height="31.487px" viewBox="0 0 95.123 31.487" enable-background="new 0 0 95.123 31.487" xml:space="preserve">
<g>
	<defs>
		<rect id="SVGID_1_" width="95.123" height="31.487"/>
	</defs>
	<clipPath id="SVGID_2_">
		<use xlink:href="#SVGID_1_"  overflow="visible"/>
	</clipPath>
	<path clip-path="url(#SVGID_2_)" fill="#F36C3B" d="M77.3,10.341C75.199,4.568,69.819,0.371,63.412,0l3.361,10.341H77.3z"/>
	<path clip-path="url(#SVGID_2_)" fill="#3CABD7" d="M54.516,29.32c2.339,1.375,5.062,2.167,7.973,2.167s5.633-0.792,7.973-2.167
		l-7.973-5.793L54.516,29.32z"/>
	<path clip-path="url(#SVGID_2_)" fill="#6B6C6F" d="M61.563,0c-6.406,0.371-11.787,4.567-13.888,10.341h10.528L61.563,0z"/>
	<path clip-path="url(#SVGID_2_)" fill="#96BDBB" d="M47.099,12.346c-0.239,1.09-0.368,2.221-0.368,3.383
		c0,4.91,2.245,9.293,5.764,12.183l3.062-9.421L47.099,12.346z"/>
</g>
<polygon fill="#96BDBB" points="72.801,13.311 74.661,13.311 77.584,21.454 77.622,21.454 77.622,13.311 79.559,13.311 
	79.559,26.826 77.735,26.826 74.774,18.702 74.736,18.702 74.736,26.826 72.801,26.826 "/>
<rect x="83.259" y="13.311" fill="#96BDBB" width="1.937" height="13.515"/>
<g>
	<defs>
		<rect id="SVGID_3_" width="95.123" height="31.487"/>
	</defs>
	<clipPath id="SVGID_4_">
		<use xlink:href="#SVGID_3_"  overflow="visible"/>
	</clipPath>
	<path clip-path="url(#SVGID_4_)" fill="#96BDBB" d="M95.123,23.807c0,0.417-0.079,0.816-0.237,1.196
		c-0.159,0.379-0.377,0.712-0.655,0.997c-0.278,0.284-0.604,0.512-0.978,0.683c-0.373,0.17-0.775,0.256-1.205,0.256
		c-0.367,0-0.74-0.051-1.12-0.151c-0.38-0.102-0.721-0.275-1.025-0.522c-0.303-0.247-0.554-0.571-0.75-0.978
		c-0.195-0.404-0.294-0.917-0.294-1.537V16.31c0-0.442,0.076-0.854,0.229-1.233c0.151-0.38,0.366-0.709,0.645-0.987
		c0.279-0.279,0.611-0.497,0.997-0.655c0.386-0.158,0.813-0.238,1.281-0.238c0.442,0,0.854,0.08,1.233,0.238
		c0.381,0.158,0.709,0.379,0.987,0.664c0.278,0.285,0.496,0.627,0.655,1.025c0.158,0.399,0.237,0.832,0.237,1.3v0.76h-1.937v-0.646
		c0-0.379-0.108-0.708-0.323-0.987c-0.215-0.278-0.506-0.418-0.873-0.418c-0.48,0-0.8,0.149-0.958,0.447
		c-0.158,0.297-0.237,0.673-0.237,1.129v6.909c0,0.393,0.086,0.722,0.256,0.986c0.171,0.267,0.478,0.399,0.921,0.399
		c0.126,0,0.262-0.022,0.408-0.066c0.145-0.045,0.277-0.116,0.398-0.219c0.12-0.101,0.219-0.24,0.294-0.417
		c0.076-0.178,0.114-0.398,0.114-0.665v-0.664h1.937V23.807z"/>
</g>
<polygon fill="#6B6C6F" points="0,13.311 0,15.133 2.24,15.133 2.24,26.826 4.176,26.826 4.176,15.133 6.416,15.133 6.416,13.311 
	"/>
<polygon fill="#6B6C6F" points="9.168,13.311 14.939,13.311 14.939,15.133 11.104,15.133 11.104,19.1 14.445,19.1 14.445,20.921 
	11.104,20.921 11.104,24.89 14.939,24.89 14.939,26.826 9.168,26.826 "/>
<polygon fill="#6B6C6F" points="19.874,19.746 17.35,13.311 19.399,13.311 20.86,17.316 22.341,13.311 24.392,13.311 21.81,19.746 
	24.601,26.826 22.549,26.826 20.86,22.27 19.19,26.826 17.141,26.826 "/>
<path fill="#6B6C6F" d="M30.332,17.202h-0.038L29.345,22.1h1.936L30.332,17.202z M29.516,13.311h1.614l3.017,13.515h-1.936
	l-0.569-2.904h-2.638l-0.57,2.904h-1.936L29.516,13.311z"/>
<g>
	<defs>
		<rect id="SVGID_5_" width="95.123" height="31.487"/>
	</defs>
	<clipPath id="SVGID_6_">
		<use xlink:href="#SVGID_5_"  overflow="visible"/>
	</clipPath>
	<path clip-path="url(#SVGID_6_)" fill="#6B6C6F" d="M43.259,17.202h-1.936v-0.436c0-0.443-0.105-0.826-0.313-1.149
		c-0.209-0.323-0.561-0.484-1.054-0.484c-0.266,0-0.484,0.051-0.655,0.152c-0.171,0.102-0.304,0.231-0.399,0.389
		c-0.094,0.159-0.161,0.342-0.199,0.55c-0.038,0.209-0.057,0.428-0.057,0.655c0,0.267,0.01,0.491,0.029,0.674
		c0.019,0.185,0.066,0.343,0.142,0.476c0.076,0.133,0.187,0.25,0.333,0.351c0.145,0.103,0.344,0.203,0.597,0.305l1.481,0.588
		c0.43,0.165,0.778,0.357,1.044,0.579c0.266,0.222,0.471,0.48,0.617,0.777c0.145,0.298,0.243,0.641,0.294,1.025
		c0.05,0.387,0.076,0.826,0.076,1.32c0,0.568-0.057,1.098-0.171,1.585c-0.114,0.486-0.301,0.903-0.56,1.252
		c-0.259,0.348-0.604,0.624-1.035,0.825c-0.43,0.202-0.955,0.304-1.575,0.304c-0.468,0-0.905-0.082-1.31-0.246
		c-0.405-0.165-0.753-0.389-1.044-0.674s-0.522-0.623-0.693-1.017c-0.17-0.391-0.256-0.815-0.256-1.271v-0.723h1.937v0.608
		c0,0.355,0.104,0.674,0.312,0.958c0.209,0.285,0.561,0.427,1.054,0.427c0.329,0,0.585-0.047,0.769-0.142
		c0.183-0.095,0.323-0.228,0.417-0.398c0.095-0.171,0.155-0.383,0.181-0.636c0.025-0.253,0.038-0.532,0.038-0.835
		c0-0.355-0.013-0.646-0.038-0.874c-0.026-0.227-0.079-0.411-0.162-0.55c-0.082-0.139-0.196-0.253-0.341-0.342
		c-0.146-0.088-0.339-0.184-0.579-0.284l-1.386-0.57c-0.835-0.341-1.395-0.794-1.68-1.356c-0.284-0.563-0.427-1.27-0.427-2.116
		c0-0.506,0.07-0.987,0.209-1.443c0.139-0.456,0.345-0.848,0.617-1.177s0.617-0.591,1.034-0.788
		c0.418-0.196,0.905-0.294,1.462-0.294c0.481,0,0.921,0.089,1.319,0.266c0.399,0.177,0.74,0.411,1.025,0.702
		c0.285,0.292,0.503,0.617,0.655,0.978c0.152,0.36,0.228,0.731,0.228,1.11V17.202z"/>
</g>
</svg>
